<svg xmlns="http://www.w3.org/2000/svg" width="220.3" height="46" viewBox="43.1 9 220.3 46"><path fill="#f7931a" d="M88.393 37.595c-3.1 12.3-15.6 19.8-27.9 16.7s-19.8-15.6-16.7-27.9 15.5-19.8 27.9-16.8c12.3 3.2 19.8 15.7 16.7 28z"/><path fill="#fff" d="M76.193 28.695c.5-3.1-1.9-4.7-5.1-5.8l1-4.1-2.5-.6-1 4-2-.5 1-4.1-2.5-.6-1 4.1c-.5-.1-1.1-.2-1.6-.4l-3.5-.9-.7 2.7s1.9.4 1.8.5c1 .3 1.2.9 1.2 1.5l-1.2 4.7c.1 0 .2 0 .3.1-.1 0-.2 0-.3-.1l-1.7 6.6c-.1.3-.4.8-1.2.6l-1.8-.5-1.3 2.9 3.3.8c.6.2 1.2.3 1.8.5l-1 4.2 2.5.6 1-4.1 2 .5-1 4.1 2.5.6 1-4.2c4.3.8 7.5.5 8.9-3.4 1.1-3.1-.1-4.9-2.3-6.1 1.9-.2 3.1-1.3 3.4-3.6zm-5.7 8.1c-.8 3.1-6.1 1.4-7.8 1l1.4-5.6c1.7.5 7.2 1.3 6.4 4.6zm.8-8.1c-.7 2.9-5.1 1.4-6.5 1l1.3-5c1.3.4 5.9 1 5.2 4z"/><path fill="#4d4d4d" d="M110.493 22.895c1.9 0 3.5.3 4.8 1 1.4.7 2.5 1.6 3.4 2.7s1.5 2.4 2 4c.4 1.5.6 3.1.6 4.9 0 2.7-.5 5.2-1.5 7.6s-2.3 4.5-4 6.2a17.51 17.51 0 0 1-6.1 4.2c-2.3 1-4.9 1.5-7.6 1.5h-1.8c-.9 0-1.9-.1-3-.3l-3.6-.7c-1.3-.3-2.5-.7-3.6-1.3l10.1-42.3 9-1.4-3.6 15 2.3-.8c.9-.2 1.7-.3 2.6-.3zm-7.6 24.9c1.4 0 2.6-.3 3.8-1s2.2-1.5 3.1-2.6 1.6-2.4 2.1-3.8.8-2.9.8-4.4c0-1.9-.3-3.3-.9-4.4-.6-1-1.8-1.6-3.4-1.6-.5 0-1.3.1-2.1.3a5.45 5.45 0 0 0-2.4 1.2l-3.8 15.9c.2 0 .4.1.6.1s.4.1.5.1h.7c.3.2.6.2 1 .2zm27.8 6.4h-8.6l7.3-30.6h8.7l-7.4 30.6zm4.2-34.4c-1.2 0-2.3-.4-3.3-1.1s-1.5-1.8-1.5-3.3c0-.8.2-1.6.5-2.3s.8-1.3 1.3-1.9c.5-.5 1.2-.9 1.9-1.3.7-.3 1.5-.5 2.3-.5 1.2 0 2.3.4 3.3 1.1s1.5 1.8 1.5 3.3c0 .8-.2 1.6-.5 2.3s-.8 1.3-1.3 1.9c-.5.5-1.2.9-1.9 1.2-.7.5-1.5.6-2.3.6zm10.7-3.9 9-1.4-2.2 9h9.7l-1.7 7.1h-9.6l-2.6 10.7c-.2.9-.4 1.7-.4 2.5s.1 1.4.3 2 .6 1 1.3 1.3c.6.3 1.5.5 2.6.5.9 0 1.8-.1 2.7-.3l2.6-.7.6 6.6-3.8 1.1c-1.4.3-3 .5-4.8.5-2.7 0-4.8-.4-6.2-1.2-1.5-.8-2.5-1.9-3.1-3.3s-.9-3-.8-4.7c.1-1.8.3-3.7.8-5.6l5.6-24.1zm16.1 26.1c0-2.6.4-5.1 1.3-7.5.9-2.3 2.1-4.4 3.7-6.1s3.5-3.1 5.8-4.1 4.8-1.5 7.6-1.5c1.7 0 3.3.2 4.7.5s2.6.8 3.8 1.3l-3 6.8-2.4-.8c-.8-.3-1.9-.4-3.1-.4-2.9 0-5.1 1-6.8 3s-2.5 4.6-2.5 8c0 2 .4 3.6 1.3 4.8s2.4 1.8 4.7 1.8c1.1 0 2.2-.1 3.3-.3s2-.5 2.8-.9l.6 6.9c-1.1.4-2.3.8-3.6 1.1s-2.9.5-4.7.5c-2.4 0-4.4-.4-6.1-1-1.7-.7-3-1.6-4.1-2.8s-1.9-2.6-2.4-4.2c-.7-1.7-.9-3.4-.9-5.1zm38.2 13c-2.1 0-3.8-.3-5.4-.9-1.5-.6-2.8-1.5-3.8-2.6s-1.7-2.5-2.2-4-.8-3.2-.8-5.1c0-2.3.4-4.7 1.1-7 .8-2.3 1.9-4.4 3.4-6.3s3.3-3.4 5.4-4.6 4.6-1.8 7.3-1.8c2 0 3.8.3 5.3.9s2.8 1.5 3.8 2.6 1.7 2.5 2.2 4 .8 3.2.8 5.1c0 2.3-.4 4.7-1.1 7a19.02 19.02 0 0 1-3.3 6.3c-1.4 1.9-3.2 3.4-5.4 4.6-1.9 1.2-4.4 1.8-7.3 1.8zm4.3-24.9c-1.3 0-2.4.4-3.4 1.1s-1.8 1.7-2.4 2.8c-.7 1.1-1.2 2.4-1.5 3.7s-.5 2.6-.5 3.8c0 1.9.3 3.5.9 4.5.6 1.1 1.7 1.6 3.4 1.6 1.3 0 2.4-.4 3.4-1.1s1.8-1.7 2.4-2.8c.7-1.1 1.2-2.4 1.5-3.7s.5-2.6.5-3.8c0-1.9-.3-3.5-.9-4.5-.6-1.1-1.7-1.6-3.4-1.6zm22.4 24.1h-8.6l7.3-30.6h8.7l-7.4 30.6zm4.1-34.4c-1.2 0-2.3-.4-3.3-1.1s-1.5-1.8-1.5-3.3c0-.8.2-1.6.5-2.3s.8-1.3 1.3-1.9c.5-.5 1.2-.9 1.9-1.3.7-.3 1.5-.5 2.3-.5 1.2 0 2.3.4 3.3 1.1s1.5 1.8 1.5 3.3c0 .8-.2 1.6-.5 2.3s-.8 1.3-1.3 1.9c-.5.5-1.2.9-1.9 1.2-.7.5-1.4.6-2.3.6zm9.4 5.2 2.2-.7c.8-.3 1.7-.5 2.7-.7l3.3-.5 4.2-.2c4.5 0 7.7 1.3 9.4 4 1.7 2.6 2 6.2.9 10.8l-4 16.5h-8.7l3.8-16.2.6-2.9c.1-.9.1-1.8 0-2.5-.2-.7-.5-1.3-1.1-1.7s-1.4-.7-2.6-.7c-1.1 0-2.3.1-3.4.4l-5.6 23.7h-8.7l7-29.3z"/></svg>