<svg xmlns="http://www.w3.org/2000/svg" width="103" height="32"><path fill="#8dc640" d="M96.3 14.7c-.6.4-1.4.6-2.6.6h-1.1l.9-4.8h.9c1 0 1.7.1 2.2.5.4.2.8.7.8 1.7-.1 1.1-.7 1.7-1.1 2m-68.8 6h-8.9l.6-3.1h5.6l.6-3.5h-5.6l.6-3.1h8.9l-1.8 9.7zm73.6-12.4C99.8 7.4 97.8 7 95.2 7h-6.8l-2.5 13.7H77l.6-3.1H83l.6-3.5h-5.4l.6-3.1h5.6l.7-4H73.8l-2.4 13h-4.1l2.4-13h-5.9l-2.4 13h-4l2.4-13.1h-5.9l-2.5 13.7h-9l.6-3.1h5.4L49 14h-5.4l.6-3.1h5.6l.7-4H15.4l-2 10.9L9.4 7H3.3L0 24.7h5.8l2-11.2 3.9 11.2h20.9L35.1 11h3.3l-2.5 13.7h55l1.6-8.7 2.6 8.7h5.8l-2.7-7.1.6-.1c1.3-.3 2.4-.9 3.1-1.8s1.1-2.2 1.1-3.6c0-1.7-.6-2.9-1.9-3.8"/></svg>