<svg xmlns="http://www.w3.org/2000/svg" width="103" height="32"><path fill="#862165" d="M73.8 5.5 80 4.4V28h-6.2V5.5zm9 0V28H89V4.4l-6.2 1.1zM65.1 28h6.2V10.7h-6.2V28zM24.4 13.2c-.8-.1-2.6-.2-2.6-1.8 0-2 2.6-2 3.6-2 1.7 0 3.9.5 5.5 1l1.6.6h.1V5.7h-.1c-1.9-.7-4-1.3-8.1-1.3-6.9 0-9.4 4-9.4 7.5 0 2 .8 6.7 8.8 7.2.7 0 2.4.1 2.4 1.8 0 1.4-1.5 2.2-3.9 2.2-2.7 0-5.3-.7-6.9-1.3v5.5c2.4.6 5.1.9 8.2.9 6.8 0 9.8-3.8 9.8-7.6.1-4.3-3.3-7-9-7.4zm37.2-2.7c-5.7.2-8.6 2.7-8.6 7.8V28h6.2v-7.9c0-3 .4-4.3 4-4.5v-5.1c-.6-.1-1.6 0-1.6 0zm-16.7.2c-.1.4-1.1 3.1-3.5 6V4.4L35 5.6V28h6.4v-6.9c1.8 2.8 2.7 6.9 2.7 6.9h7.6c-.8-3.1-4-8.9-4-8.9 3-3.8 4.2-7.7 4.5-8.4h-7.3zm23.3-1.6a3.01 3.01 0 0 0 3-3 3.08 3.08 0 0 0-3-3 3.08 3.08 0 0 0-3 3c-.1 1.6 1.3 3 3 3z"/></svg>