<svg xmlns="http://www.w3.org/2000/svg" xmlns:xlink="http://www.w3.org/1999/xlink" width="103" height="32"><defs><path id="a" d="m35.6 4.7-5.9 14.9-2.3-12.7c-.3-1.4-1.4-2.2-2.6-2.2h-9.6l-.2.6c2 .4 4.2 1.1 5.6 1.9.8.4 1.1.8 1.4 1.9l4.5 17.4h5.9l9.2-21.9-6 .1zm8.4 0-4.7 21.9H45l4.7-21.9H44zm32.5 5.9 1.7 8.2h-4.7l3-8.2zm-.9-5.9c-1.1 0-2 .6-2.4 1.6l-8.5 20.3h5.9l1.2-3.3h7.3l.7 3.3H85L80.4 4.7h-4.8zm-24.4 6.8c0 3.1 2.8 4.9 5 5.9 2.2 1.1 2.9 1.8 2.9 2.7 0 1.5-1.7 2.1-3.4 2.2-2.8 0-4.5-.8-5.8-1.4l-1 4.8c1.3.6 3.7 1.1 6.3 1.2 5.9 0 9.8-2.9 9.8-7.5 0-5.8-8-6.1-7.9-8.7 0-.8.8-1.6 2.4-1.8.8-.1 3.1-.2 5.6 1l1-4.7c-1.4-.5-3.1-1-5.3-1-5.6.1-9.6 3.1-9.6 7.3"/></defs><clipPath id="b"><use xlink:href="#a"/></clipPath><linearGradient id="c" x1="14.998" x2="85.003" y1="15.599" y2="15.599" gradientUnits="userSpaceOnUse"><stop offset="0" stop-color="#241f5d"/><stop offset="1" stop-color="#034ea1"/></linearGradient><path fill="url(#c)" d="M15 4.3h70v22.6H15z" clip-path="url(#b)"/></svg>